<?xml version='1.0' encoding='ASCII' standalone='yes'?>
<svg xmlns="http://www.w3.org/2000/svg" viewBox="0 0 1600 800"><rect x="0" y="0" width="1600" height="800" r="0" rx="0" ry="0" fill="#FAFAFA" stroke="#FAFAFA"/><path d=" M 0 67 H 1600 M 0 133 H 1600 M 0 200 H 1600 M 0 267 H 1600 M 0 333 H 1600 M 0 400 H 1600 M 0 467 H 1600 M 0 533 H 1600 M 0 600 H 1600 M 0 667 H 1600 M 0 733 H 1600 M 67 0 V 800 M 133 0 V 800 M 200 0 V 800 M 267 0 V 800 M 333 0 V 800 M 400 0 V 800 M 467 0 V 800 M 533 0 V 800 M 600 0 V 800 M 667 0 V 800 M 733 0 V 800 M 800 0 V 800 M 867 0 V 800 M 933 0 V 800 M 1000 0 V 800 M 1067 0 V 800 M 1133 0 V 800 M 1200 0 V 800 M 1267 0 V 800 M 1333 0 V 800 M 1400 0 V 800 M 1467 0 V 800 M 1533 0 V 800" stroke-dasharray="4" stroke-dashoffset="6" stroke="#CCCCCC"/><polygon points="944,440 976,432 984,424 992,416 1000,408 1008,400 1096,392 1120,384 1128,376 1136,368 1144,344 1144,344 1152,336 1152,328 1144,320 1136,296 1136,224 1144,88 1152,56 1160,40 1168,32 1264,32 1344,40 1432,48 1488,56 1496,64 1504,72 1504,144 1496,192 1488,248 1480,272 1472,288 1464,312 1456,352 1456,352 1448,360 1448,392 1456,400 1464,424 1464,496 1456,512 1448,528 1440,544 1432,560 1424,568 1416,584 1408,592 1400,600 1392,608 1384,624 1376,632 1368,640 1360,648 1352,656 1344,664 1336,672 1320,680 1288,688 1264,696 1152,704 1032,704 1000,696 984,688 976,680 960,672 952,664 944,656 928,648 928,648 920,640 872,640 864,648 864,656 856,664 848,672 840,680 832,688 824,696 768,696 760,704 760,712 752,720 744,728 720,736 568,744 504,744 488,736 480,728 480,720 472,712 448,712 448,712 440,704 424,704 416,712 200,712 136,704 128,696 120,688 120,680 128,624 136,568 144,560 144,560 152,552 152,536 144,528 136,528 128,536 72,536 64,528 56,520 48,512 40,504 32,488 32,480 40,432 48,376 56,328 56,328 64,320 64,296 56,288 56,240 64,232 72,224 80,224 104,232 112,240 120,248 128,256 128,256 136,264 144,264 152,256 184,256 192,264 200,272 200,272 208,280 208,280 216,272 224,264 256,264 264,272 272,280 272,280 280,288 288,288 296,280 320,272 328,272 336,280 344,288 352,296 360,304 376,312 400,320 416,328 424,336 432,344 440,352 440,384 440,384 432,392 432,408 440,416 464,416 464,416 472,424 472,424 480,416 488,416 544,424 632,432 728,440 760,448 760,448 768,456 768,456 776,448 784,440 888,440 888,440 896,448 936,448 " style="fill:#E0E0E0;fill-rule:evenodd"/>
<polygon points="768,480 760,472 720,464 632,456 536,448 464,440 424,432 416,424 416,424 408,416 408,392 416,384 416,360 408,352 400,344 376,336 352,328 344,320 336,312 328,304 304,304 304,304 296,312 272,312 264,304 256,296 248,288 232,288 216,296 216,296 208,304 208,304 200,296 192,288 184,280 152,280 152,280 144,288 128,288 120,280 112,272 104,264 96,256 80,256 80,280 80,280 88,288 88,320 80,328 72,376 64,432 56,480 56,488 64,496 72,504 80,512 128,512 128,512 136,504 152,504 160,512 168,520 168,520 176,528 176,552 168,560 160,576 152,624 152,680 200,688 416,688 416,688 424,680 440,680 448,688 488,696 496,704 504,720 568,720 720,712 736,704 744,696 752,688 760,680 816,672 824,664 832,656 840,648 848,640 856,624 856,624 864,616 928,616 936,624 944,632 952,640 968,648 976,656 984,664 1008,672 1032,680 1152,680 1264,672 1288,664 1320,656 1336,648 1344,632 1352,624 1360,616 1368,608 1376,600 1384,592 1392,576 1400,568 1408,552 1416,536 1424,528 1432,504 1440,496 1440,424 1432,400 1432,400 1424,392 1424,360 1432,352 1440,312 1448,288 1456,264 1464,248 1472,192 1480,144 1480,80 1432,72 1344,64 1256,56 1176,56 1168,88 1160,224 1160,296 1168,320 1168,320 1176,328 1176,336 1168,344 1160,368 1152,384 1136,392 1128,400 1120,408 1096,416 1016,424 1008,432 1000,440 992,448 984,456 952,464 952,464 944,472 888,472 880,464 784,464 776,472 776,472 " style="fill:#61B081;fill-rule:evenodd"/>
<circle cx="168" cy="680" r="15" fill="yellow"/></svg>
